<svg width="263" height="52" viewBox="0 0 263 52" fill="none" xmlns="http://www.w3.org/2000/svg">
<rect width="263" height="52" rx="26" fill="#00856F"/>
<path d="M45.8337 27.6667C45.667 27.5833 44.5837 27.0833 44.417 27C44.2503 26.9167 44.0837 26.9167 43.917 27.0833C43.7503 27.25 43.417 27.75 43.2503 27.9167C43.167 28.0833 43.0003 28.0833 42.8337 28C42.2503 27.75 41.667 27.4167 41.167 27C40.7503 26.5833 40.3337 26.0833 40.0003 25.5833C39.917 25.4167 40.0003 25.25 40.0837 25.1667C40.167 25.0833 40.2503 24.9167 40.417 24.8333C40.5003 24.75 40.5837 24.5833 40.5837 24.5C40.667 24.4167 40.667 24.25 40.5837 24.1667C40.5003 24.0833 40.0837 23.0833 39.917 22.6667C39.8337 22.0833 39.667 22.0833 39.5003 22.0833C39.417 22.0833 39.2503 22.0833 39.0837 22.0833C38.917 22.0833 38.667 22.25 38.5837 22.3333C38.0837 22.8333 37.8337 23.4167 37.8337 24.0833C37.917 24.8333 38.167 25.5833 38.667 26.25C39.5837 27.5833 40.7503 28.6667 42.167 29.3333C42.5837 29.5 42.917 29.6667 43.3337 29.75C43.7503 29.9167 44.167 29.9167 44.667 29.8333C45.2503 29.75 45.7503 29.3333 46.0837 28.8333C46.2503 28.5 46.2503 28.1667 46.167 27.8333C46.167 27.8333 46.0003 27.75 45.8337 27.6667ZM47.917 20.0833C44.667 16.8333 39.417 16.8333 36.167 20.0833C33.5003 22.75 33.0003 26.8333 34.8337 30.0833L33.667 34.3333L38.0837 33.1667C39.3337 33.8333 40.667 34.1667 42.0003 34.1667C46.5837 34.1667 50.2503 30.5 50.2503 25.9167C50.3337 23.75 49.417 21.6667 47.917 20.0833ZM45.667 31.75C44.5837 32.4167 43.3337 32.8333 42.0003 32.8333C40.7503 32.8333 39.5837 32.5 38.5003 31.9167L38.2503 31.75L35.667 32.4167L36.3337 29.9167L36.167 29.6667C34.167 26.3333 35.167 22.1667 38.417 20.0833C41.667 18 45.8337 19.0833 47.8337 22.25C49.8337 25.5 48.917 29.75 45.667 31.75Z" fill="white"/>
<path d="M68.322 31L71.906 21.2H73.922L77.506 31H75.602L74.818 28.732H70.996L70.198 31H68.322ZM71.486 27.332H74.328L72.9 23.258L71.486 27.332ZM82.4919 31.168C81.5679 31.168 80.7605 30.958 80.0699 30.538C79.3792 30.118 78.8425 29.5347 78.4599 28.788C78.0772 28.032 77.8859 27.1547 77.8859 26.156C77.8859 25.148 78.0819 24.2613 78.4739 23.496C78.8752 22.7213 79.4399 22.1193 80.1679 21.69C80.9052 21.2513 81.7779 21.032 82.7859 21.032C83.9339 21.032 84.8859 21.3073 85.6419 21.858C86.3979 22.4087 86.8879 23.1693 87.1119 24.14H85.1099C84.9605 23.6827 84.6899 23.328 84.2979 23.076C83.9059 22.8147 83.4019 22.684 82.7859 22.684C81.8059 22.684 81.0499 22.9967 80.5179 23.622C79.9859 24.238 79.7199 25.0873 79.7199 26.17C79.7199 27.2527 79.9812 28.0927 80.5039 28.69C81.0359 29.278 81.7545 29.572 82.6599 29.572C83.5465 29.572 84.2139 29.334 84.6619 28.858C85.1192 28.3727 85.3945 27.738 85.4879 26.954H83.0099V25.61H87.2939V31H85.6419L85.5019 29.712C85.1845 30.1787 84.7879 30.538 84.3119 30.79C83.8359 31.042 83.2292 31.168 82.4919 31.168ZM89.036 31V21.2H95.434V22.642H90.828V25.33H95.014V26.73H90.828V29.558H95.434V31H89.036ZM97.1297 31V21.2H98.9217L103.528 28.102V21.2H105.32V31H103.528L98.9217 24.112V31H97.1297ZM107.22 31V21.2H110.566C111.714 21.2 112.656 21.4053 113.394 21.816C114.14 22.2173 114.691 22.7867 115.046 23.524C115.41 24.252 115.592 25.1107 115.592 26.1C115.592 27.0893 115.41 27.9527 115.046 28.69C114.691 29.418 114.14 29.9873 113.394 30.398C112.656 30.7993 111.714 31 110.566 31H107.22ZM109.012 29.46H110.482C111.303 29.46 111.952 29.3293 112.428 29.068C112.904 28.7973 113.244 28.4147 113.45 27.92C113.655 27.416 113.758 26.8093 113.758 26.1C113.758 25.4 113.655 24.798 113.45 24.294C113.244 23.79 112.904 23.4027 112.428 23.132C111.952 22.8613 111.303 22.726 110.482 22.726H109.012V29.46ZM117.173 31V21.2H123.571V22.642H118.965V25.33H123.151V26.73H118.965V29.558H123.571V31H117.173ZM131.948 31.168C131.23 31.168 130.595 31.0467 130.044 30.804C129.494 30.552 129.06 30.1973 128.742 29.74C128.425 29.2733 128.262 28.7087 128.252 28.046H130.142C130.161 28.5033 130.324 28.8907 130.632 29.208C130.95 29.516 131.384 29.67 131.934 29.67C132.41 29.67 132.788 29.558 133.068 29.334C133.348 29.1007 133.488 28.7927 133.488 28.41C133.488 28.0087 133.362 27.696 133.11 27.472C132.868 27.248 132.541 27.066 132.13 26.926C131.72 26.786 131.281 26.6367 130.814 26.478C130.058 26.2167 129.48 25.8807 129.078 25.47C128.686 25.0593 128.49 24.5133 128.49 23.832C128.481 23.2533 128.616 22.7587 128.896 22.348C129.186 21.928 129.578 21.606 130.072 21.382C130.567 21.1487 131.136 21.032 131.78 21.032C132.434 21.032 133.008 21.1487 133.502 21.382C134.006 21.6153 134.398 21.942 134.678 22.362C134.968 22.782 135.122 23.2813 135.14 23.86H133.222C133.213 23.5147 133.078 23.2113 132.816 22.95C132.564 22.6793 132.21 22.544 131.752 22.544C131.36 22.5347 131.029 22.6327 130.758 22.838C130.497 23.034 130.366 23.3233 130.366 23.706C130.366 24.0327 130.469 24.294 130.674 24.49C130.88 24.6767 131.16 24.8353 131.514 24.966C131.869 25.0967 132.275 25.2367 132.732 25.386C133.218 25.554 133.661 25.75 134.062 25.974C134.464 26.198 134.786 26.4967 135.028 26.87C135.271 27.234 135.392 27.7053 135.392 28.284C135.392 28.7973 135.262 29.2733 135 29.712C134.739 30.1507 134.352 30.5053 133.838 30.776C133.325 31.0373 132.695 31.168 131.948 31.168ZM140.736 31.168C140.017 31.168 139.369 31.028 138.79 30.748C138.211 30.4587 137.749 30.0247 137.404 29.446C137.068 28.8673 136.9 28.1347 136.9 27.248V21.2H138.692V27.262C138.692 28.0273 138.874 28.5967 139.238 28.97C139.611 29.3433 140.125 29.53 140.778 29.53C141.422 29.53 141.931 29.3433 142.304 28.97C142.677 28.5967 142.864 28.0273 142.864 27.262V21.2H144.656V27.248C144.656 28.1347 144.479 28.8673 144.124 29.446C143.769 30.0247 143.293 30.4587 142.696 30.748C142.108 31.028 141.455 31.168 140.736 31.168ZM145.431 31L149.015 21.2H151.031L154.615 31H152.711L151.927 28.732H148.105L147.307 31H145.431ZM148.595 27.332H151.437L150.009 23.258L148.595 27.332ZM163.652 31.168C162.662 31.168 161.813 30.958 161.104 30.538C160.394 30.1087 159.848 29.516 159.466 28.76C159.083 27.9947 158.892 27.1127 158.892 26.114C158.892 25.1153 159.083 24.2333 159.466 23.468C159.848 22.7027 160.394 22.1053 161.104 21.676C161.813 21.2467 162.662 21.032 163.652 21.032C164.828 21.032 165.789 21.326 166.536 21.914C167.292 22.4927 167.763 23.3093 167.95 24.364H165.976C165.854 23.832 165.593 23.4167 165.192 23.118C164.8 22.81 164.277 22.656 163.624 22.656C162.718 22.656 162.009 22.964 161.496 23.58C160.982 24.196 160.726 25.0407 160.726 26.114C160.726 27.1873 160.982 28.032 161.496 28.648C162.009 29.2547 162.718 29.558 163.624 29.558C164.277 29.558 164.8 29.418 165.192 29.138C165.593 28.8487 165.854 28.452 165.976 27.948H167.95C167.763 28.956 167.292 29.7447 166.536 30.314C165.789 30.8833 164.828 31.168 163.652 31.168ZM174.128 31.168C173.148 31.168 172.289 30.9533 171.552 30.524C170.824 30.0947 170.25 29.502 169.83 28.746C169.419 27.9807 169.214 27.0987 169.214 26.1C169.214 25.1013 169.419 24.224 169.83 23.468C170.25 22.7027 170.824 22.1053 171.552 21.676C172.289 21.2467 173.148 21.032 174.128 21.032C175.099 21.032 175.953 21.2467 176.69 21.676C177.427 22.1053 178.001 22.7027 178.412 23.468C178.823 24.224 179.028 25.1013 179.028 26.1C179.028 27.0987 178.823 27.9807 178.412 28.746C178.001 29.502 177.427 30.0947 176.69 30.524C175.953 30.9533 175.099 31.168 174.128 31.168ZM174.128 29.558C175.061 29.558 175.803 29.25 176.354 28.634C176.914 28.018 177.194 27.1733 177.194 26.1C177.194 25.0267 176.914 24.182 176.354 23.566C175.803 22.95 175.061 22.642 174.128 22.642C173.195 22.642 172.448 22.95 171.888 23.566C171.328 24.182 171.048 25.0267 171.048 26.1C171.048 27.1733 171.328 28.018 171.888 28.634C172.448 29.25 173.195 29.558 174.128 29.558ZM180.61 31V21.2H182.402L187.008 28.102V21.2H188.8V31H187.008L182.402 24.112V31H180.61ZM194.046 31.168C193.327 31.168 192.693 31.0467 192.142 30.804C191.591 30.552 191.157 30.1973 190.84 29.74C190.523 29.2733 190.359 28.7087 190.35 28.046H192.24C192.259 28.5033 192.422 28.8907 192.73 29.208C193.047 29.516 193.481 29.67 194.032 29.67C194.508 29.67 194.886 29.558 195.166 29.334C195.446 29.1007 195.586 28.7927 195.586 28.41C195.586 28.0087 195.46 27.696 195.208 27.472C194.965 27.248 194.639 27.066 194.228 26.926C193.817 26.786 193.379 26.6367 192.912 26.478C192.156 26.2167 191.577 25.8807 191.176 25.47C190.784 25.0593 190.588 24.5133 190.588 23.832C190.579 23.2533 190.714 22.7587 190.994 22.348C191.283 21.928 191.675 21.606 192.17 21.382C192.665 21.1487 193.234 21.032 193.878 21.032C194.531 21.032 195.105 21.1487 195.6 21.382C196.104 21.6153 196.496 21.942 196.776 22.362C197.065 22.782 197.219 23.2813 197.238 23.86H195.32C195.311 23.5147 195.175 23.2113 194.914 22.95C194.662 22.6793 194.307 22.544 193.85 22.544C193.458 22.5347 193.127 22.6327 192.856 22.838C192.595 23.034 192.464 23.3233 192.464 23.706C192.464 24.0327 192.567 24.294 192.772 24.49C192.977 24.6767 193.257 24.8353 193.612 24.966C193.967 25.0967 194.373 25.2367 194.83 25.386C195.315 25.554 195.759 25.75 196.16 25.974C196.561 26.198 196.883 26.4967 197.126 26.87C197.369 27.234 197.49 27.7053 197.49 28.284C197.49 28.7973 197.359 29.2733 197.098 29.712C196.837 30.1507 196.449 30.5053 195.936 30.776C195.423 31.0373 194.793 31.168 194.046 31.168ZM202.834 31.168C202.115 31.168 201.466 31.028 200.888 30.748C200.309 30.4587 199.847 30.0247 199.502 29.446C199.166 28.8673 198.998 28.1347 198.998 27.248V21.2H200.79V27.262C200.79 28.0273 200.972 28.5967 201.336 28.97C201.709 29.3433 202.222 29.53 202.876 29.53C203.52 29.53 204.028 29.3433 204.402 28.97C204.775 28.5967 204.962 28.0273 204.962 27.262V21.2H206.754V27.248C206.754 28.1347 206.576 28.8673 206.222 29.446C205.867 30.0247 205.391 30.4587 204.794 30.748C204.206 31.028 203.552 31.168 202.834 31.168ZM208.583 31V21.2H210.375V29.6H214.715V31H208.583ZM216.949 31V22.642H214.093V21.2H221.611V22.642H218.741V31H216.949ZM221.269 31L224.853 21.2H226.869L230.453 31H228.549L227.765 28.732H223.943L223.145 31H221.269ZM224.433 27.332H227.275L225.847 23.258L224.433 27.332Z" fill="white"/>
</svg>
